<?xml version="1.0" encoding="UTF-8"?>
<svg id="Layer_1" data-name="Layer 1" xmlns="http://www.w3.org/2000/svg" viewBox="0 0 451.42 291.65">
  <defs>
    <style>
      .cls-1 {
        fill: none;
        stroke: #fff;
        stroke-miterlimit: 10;
        stroke-width: 7.1px;
      }
    </style>
  </defs>
  <path class="cls-1" d="m225.63,215.31c35.39.48,70.78.96,106.17,1.44-32.79-21.08-58.03-41.96-75.72-62.63-6.11-7.14-11.32-14.25-15.63-21.33-11.42-17.94-18.23-17.6-29.65.14-4.31,7.02-9.52,14.01-15.63,20.98-17.7,20.19-42.94,40.18-75.72,59.97,35.39.48,70.78.96,106.17,1.44Z"/>
  <path class="cls-1" d="m225.63,200.83c35.39.48,70.78.96,106.17,1.44-32.79-21.08-58.03-41.96-75.72-62.63-6.11-7.14-11.32-14.25-15.63-21.33-11.42-17.94-18.23-17.6-29.65.14-4.31,7.02-9.52,14.01-15.63,20.98-17.7,20.19-42.94,40.18-75.72,59.97,35.39.48,70.78.96,106.17,1.44Z"/>
  <path class="cls-1" d="m225.79,172.18c35.39.48,70.78.96,106.17,1.44-32.79-21.08-58.03-41.96-75.72-62.63-6.11-7.14-11.32-14.25-15.63-21.33-11.42-17.94-18.23-17.6-29.65.14-4.31,7.02-9.52,14.01-15.63,20.98-17.7,20.19-42.94,40.18-75.72,59.97,35.39.48,70.78.96,106.17,1.44Z"/>
  <path class="cls-1" d="m225.79,186.78c35.39.48,70.78.96,106.17,1.44-32.79-21.08-58.03-41.96-75.72-62.63-6.11-7.14-11.32-14.25-15.63-21.33-11.42-17.94-18.23-17.6-29.65.14-4.31,7.02-9.52,14.01-15.63,20.98-17.7,20.19-42.94,40.18-75.72,59.97,35.39.48,70.78.96,106.17,1.44Z"/>
</svg>